<svg width="138" height="150" viewBox="0 0 138 150" fill="none" xmlns="http://www.w3.org/2000/svg">
<g id="Group 21" opacity="0.2">
<g id="Group 3">
<ellipse id="Ellipse 1" cx="5.83585" cy="6.28273" rx="5.83585" ry="6.28273" fill="#65676F"/>
<ellipse id="Ellipse 2" cx="37.2035" cy="6.28248" rx="5.83585" ry="6.28273" fill="#65676F"/>
<ellipse id="Ellipse 3" cx="68.5717" cy="6.28248" rx="5.83585" ry="6.28273" fill="#65676F"/>
<ellipse id="Ellipse 5" cx="99.9398" cy="6.28248" rx="5.83585" ry="6.28273" fill="#65676F"/>
<ellipse id="Ellipse 4" cx="131.307" cy="6.28248" rx="5.83585" ry="6.28273" fill="#65676F"/>
</g>
<g id="Group 4">
<ellipse id="Ellipse 1_2" cx="5.83585" cy="33.7698" rx="5.83585" ry="6.28273" fill="#65676F"/>
<ellipse id="Ellipse 2_2" cx="37.2035" cy="33.7695" rx="5.83585" ry="6.28273" fill="#65676F"/>
<ellipse id="Ellipse 3_2" cx="68.5717" cy="33.7695" rx="5.83585" ry="6.28273" fill="#65676F"/>
<ellipse id="Ellipse 5_2" cx="99.9398" cy="33.7695" rx="5.83585" ry="6.28273" fill="#65676F"/>
<ellipse id="Ellipse 4_2" cx="131.307" cy="33.7695" rx="5.83585" ry="6.28273" fill="#65676F"/>
</g>
<g id="Group 5">
<ellipse id="Ellipse 1_3" cx="5.83585" cy="61.2561" rx="5.83585" ry="6.28273" fill="#65676F"/>
<ellipse id="Ellipse 2_3" cx="37.2035" cy="61.2559" rx="5.83585" ry="6.28273" fill="#65676F"/>
<ellipse id="Ellipse 3_3" cx="68.5717" cy="61.2559" rx="5.83585" ry="6.28273" fill="#65676F"/>
<ellipse id="Ellipse 5_3" cx="99.9398" cy="61.2559" rx="5.83585" ry="6.28273" fill="#65676F"/>
<ellipse id="Ellipse 4_3" cx="131.307" cy="61.2559" rx="5.83585" ry="6.28273" fill="#65676F"/>
</g>
<g id="Group 6">
<ellipse id="Ellipse 1_4" cx="5.83585" cy="88.7434" rx="5.83585" ry="6.28273" fill="#65676F"/>
<ellipse id="Ellipse 2_4" cx="37.2035" cy="88.7432" rx="5.83585" ry="6.28273" fill="#65676F"/>
<ellipse id="Ellipse 3_4" cx="68.5717" cy="88.7432" rx="5.83585" ry="6.28273" fill="#65676F"/>
<ellipse id="Ellipse 5_4" cx="99.9398" cy="88.7432" rx="5.83585" ry="6.28273" fill="#65676F"/>
<ellipse id="Ellipse 4_4" cx="131.307" cy="88.7432" rx="5.83585" ry="6.28273" fill="#65676F"/>
</g>
<g id="Group 7">
<ellipse id="Ellipse 1_5" cx="5.83585" cy="116.23" rx="5.83585" ry="6.28273" fill="#65676F"/>
<ellipse id="Ellipse 2_5" cx="37.2035" cy="116.23" rx="5.83585" ry="6.28273" fill="#65676F"/>
<ellipse id="Ellipse 3_5" cx="68.5717" cy="116.23" rx="5.83585" ry="6.28273" fill="#65676F"/>
<ellipse id="Ellipse 5_5" cx="99.9398" cy="116.23" rx="5.83585" ry="6.28273" fill="#65676F"/>
<ellipse id="Ellipse 4_5" cx="131.307" cy="116.23" rx="5.83585" ry="6.28273" fill="#65676F"/>
</g>
<g id="Group 8">
<ellipse id="Ellipse 1_6" cx="5.83585" cy="143.717" rx="5.83585" ry="6.28273" fill="#65676F"/>
<ellipse id="Ellipse 2_6" cx="37.2035" cy="143.717" rx="5.83585" ry="6.28273" fill="#65676F"/>
<ellipse id="Ellipse 3_6" cx="68.5717" cy="143.717" rx="5.83585" ry="6.28273" fill="#65676F"/>
<ellipse id="Ellipse 5_6" cx="99.9398" cy="143.717" rx="5.83585" ry="6.28273" fill="#65676F"/>
<ellipse id="Ellipse 4_6" cx="131.307" cy="143.717" rx="5.83585" ry="6.28273" fill="#65676F"/>
</g>
</g>
</svg>
