<svg width="16" height="17" viewBox="0 0 16 17" fill="none" xmlns="http://www.w3.org/2000/svg">
<ellipse cx="8" cy="11.5" rx="4" ry="1.66667" stroke="current" fill="transparent" stroke-width="1.5" stroke-linejoin="round"/>
<circle cx="8" cy="5.83337" r="2" stroke="current" fill="transparent" stroke-width="1.5" stroke-linejoin="round"/>
<path fill-rule="evenodd" clip-rule="evenodd" d="M4.83574 9.08492C4.77965 9.08389 4.72333 9.08337 4.66683 9.08337C3.67537 9.08337 2.74323 9.24276 2.03126 9.52754C1.67736 9.6691 1.34063 9.85642 1.08011 10.1028C0.818012 10.3507 0.583496 10.7099 0.583496 11.1667C0.583496 11.6235 0.818012 11.9827 1.08011 12.2306C1.34063 12.477 1.67736 12.6643 2.03126 12.8059C2.47668 12.984 3.00826 13.1131 3.58664 13.1848C3.0061 12.7045 2.66683 12.1246 2.66683 11.5C2.66683 11.4812 2.66714 11.4624 2.66775 11.4437C2.64064 11.4337 2.61417 11.4235 2.58835 11.4132C2.36751 11.3248 2.22347 11.2363 2.14005 11.1667C2.22347 11.0971 2.36751 11.0086 2.58835 10.9203C2.65289 10.8944 2.72151 10.8696 2.79395 10.846C3.07767 10.1282 3.8185 9.50734 4.83574 9.08492ZM2.06844 11.2403C2.06837 11.2403 2.06882 11.2394 2.06996 11.2377C2.06907 11.2394 2.0685 11.2403 2.06844 11.2403ZM2.06996 11.0957C2.06882 11.094 2.06837 11.0931 2.06844 11.0931C2.0685 11.0931 2.06907 11.094 2.06996 11.0957Z" stroke="transparent" fill="current"/>
<path fill-rule="evenodd" clip-rule="evenodd" d="M12.4137 13.1848C12.9942 12.7045 13.3335 12.1246 13.3335 11.5C13.3335 11.4812 13.3331 11.4624 13.3325 11.4437C13.3596 11.4337 13.3861 11.4235 13.4119 11.4132C13.6328 11.3248 13.7768 11.2363 13.8602 11.1667C13.7768 11.0971 13.6328 11.0086 13.4119 10.9203C13.3474 10.8944 13.2788 10.8696 13.2063 10.846C12.9226 10.1282 12.1818 9.50734 11.1646 9.08492C11.2206 9.08389 11.277 9.08337 11.3335 9.08337C12.3249 9.08337 13.2571 9.24276 13.969 9.52754C14.3229 9.6691 14.6597 9.85642 14.9202 10.1028C15.1823 10.3507 15.4168 10.7099 15.4168 11.1667C15.4168 11.6235 15.1823 11.9827 14.9202 12.2306C14.6597 12.477 14.3229 12.6643 13.969 12.8059C13.5236 12.984 12.992 13.1131 12.4137 13.1848ZM13.9318 11.2403C13.9318 11.2403 13.9312 11.2394 13.9303 11.2377C13.9315 11.2394 13.9319 11.2403 13.9318 11.2403ZM13.9303 11.0958C13.9312 11.094 13.9318 11.0931 13.9318 11.0931C13.9319 11.0931 13.9315 11.094 13.9303 11.0958Z" stroke="transparent" fill="current"/>
<path fill-rule="evenodd" clip-rule="evenodd" d="M11.3322 5.91663C11.3328 5.88893 11.3332 5.86115 11.3332 5.83329C11.3332 5.33542 11.224 4.86303 11.0283 4.43877C11.1278 4.42418 11.2296 4.41663 11.3332 4.41663C12.4838 4.41663 13.4165 5.34937 13.4165 6.49996C13.4165 7.65055 12.4838 8.58329 11.3332 8.58329C10.9399 8.58329 10.5721 8.47433 10.2583 8.28495C10.6295 7.94283 10.9228 7.51748 11.1086 7.03851C11.1778 7.06736 11.2536 7.08329 11.3332 7.08329C11.6554 7.08329 11.9165 6.82213 11.9165 6.49996C11.9165 6.17779 11.6554 5.91663 11.3332 5.91663C11.3328 5.91663 11.3325 5.91663 11.3322 5.91663Z" stroke="transparent" fill="current"/>
<path fill-rule="evenodd" clip-rule="evenodd" d="M4.97167 4.43877C4.87217 4.42418 4.77038 4.41663 4.66683 4.41663C3.51624 4.41663 2.5835 5.34937 2.5835 6.49996C2.5835 7.65055 3.51624 8.58329 4.66683 8.58329C5.06009 8.58329 5.4279 8.47433 5.74171 8.28495C5.37051 7.94283 5.07719 7.51748 4.89138 7.03851C4.82226 7.06736 4.74641 7.08329 4.66683 7.08329C4.34466 7.08329 4.0835 6.82213 4.0835 6.49996C4.0835 6.17779 4.34466 5.91663 4.66683 5.91663C4.66717 5.91663 4.66751 5.91663 4.66785 5.91663C4.66717 5.88893 4.66683 5.86115 4.66683 5.83329C4.66683 5.33542 4.77598 4.86303 4.97167 4.43877Z" stroke="transparent" fill="current"/>
</svg>
