<svg width="14" height="14" viewBox="0 0 14 14" fill="none" xmlns="http://www.w3.org/2000/svg">
<path fill-rule="evenodd" clip-rule="evenodd" d="M3.16683 8.16671C5.8795 8.16671 6.00016 9.08671 6.00016 11C6.00016 11.9587 6.00016 12.6407 5.5975 13.14C5.13416 13.7154 4.29083 13.8334 3.16683 13.8334C2.04283 13.8334 1.1995 13.7154 0.736163 13.14C0.333496 12.6407 0.333496 11.9594 0.333496 11.0167L0.833496 11H0.333496C0.333496 9.08671 0.454163 8.16671 3.16683 8.16671ZM10.5002 8.16671C13.2128 8.16671 13.3335 9.08671 13.3335 11C13.3335 11.9587 13.3335 12.6407 12.9308 13.14C12.4675 13.7154 11.6242 13.8334 10.5002 13.8334C9.37616 13.8334 8.53283 13.7154 8.0695 13.14C7.66683 12.6407 7.66683 11.9594 7.66683 11.0167L8.16683 11H7.66683C7.66683 9.08671 7.7875 8.16671 10.5002 8.16671ZM3.30427 9.16701L3.16683 9.16671C1.42751 9.16671 1.33832 9.29152 1.33374 10.7514L1.33402 11.3202C1.33718 11.9008 1.35931 12.3202 1.51416 12.5134C1.69083 12.732 2.2155 12.8334 3.16683 12.8334C4.11816 12.8334 4.64283 12.7314 4.8195 12.5127C5.00016 12.288 5.00016 11.7547 5.00016 11.016C5.00016 9.34924 5.00016 9.17485 3.30427 9.16701ZM10.6376 9.16701L10.5002 9.16671C8.76085 9.16671 8.67165 9.29152 8.66708 10.7514L8.66736 11.3202C8.67052 11.9008 8.69264 12.3202 8.8475 12.5134C9.02416 12.732 9.54883 12.8334 10.5002 12.8334C11.4515 12.8334 11.9762 12.7314 12.1528 12.5127C12.3335 12.288 12.3335 11.7547 12.3335 11.016C12.3335 9.34924 12.3335 9.17485 10.6376 9.16701ZM3.16683 0.833374C5.8795 0.833374 6.00016 1.75337 6.00016 3.66671C6.00016 4.62537 6.00016 5.30737 5.5975 5.80671C5.13416 6.38204 4.29083 6.50004 3.16683 6.50004C2.04283 6.50004 1.1995 6.38204 0.736163 5.80671C0.333496 5.30737 0.333496 4.62604 0.333496 3.68337L0.833496 3.66671H0.333496C0.333496 1.75337 0.454163 0.833374 3.16683 0.833374ZM10.5002 0.833374C13.2128 0.833374 13.3335 1.75337 13.3335 3.66671C13.3335 4.62537 13.3335 5.30737 12.9308 5.80671C12.4675 6.38204 11.6242 6.50004 10.5002 6.50004C9.37616 6.50004 8.53283 6.38204 8.0695 5.80671C7.66683 5.30737 7.66683 4.62604 7.66683 3.68337L8.16683 3.66671H7.66683C7.66683 1.75337 7.7875 0.833374 10.5002 0.833374ZM3.30427 1.83367L3.16683 1.83337C1.42751 1.83337 1.33832 1.95818 1.33374 3.41807L1.33402 3.98683C1.33718 4.56747 1.35931 4.9869 1.51416 5.18004C1.69083 5.39871 2.2155 5.50004 3.16683 5.50004C4.11816 5.50004 4.64283 5.39804 4.8195 5.17937C5.00016 4.95471 5.00016 4.42137 5.00016 3.68271C5.00016 2.0159 5.00016 1.84152 3.30427 1.83367ZM10.6376 1.83367L10.5002 1.83337C8.76085 1.83337 8.67165 1.95818 8.66708 3.41807L8.66736 3.98683C8.67052 4.56747 8.69264 4.9869 8.8475 5.18004C9.02416 5.39871 9.54883 5.50004 10.5002 5.50004C11.4515 5.50004 11.9762 5.39804 12.1528 5.17937C12.3335 4.95471 12.3335 4.42137 12.3335 3.68271C12.3335 2.0159 12.3335 1.84152 10.6376 1.83367Z" fill="current"/>
</svg>
