<svg width="16" height="17" viewBox="0 0 16 17" fill="none" xmlns="http://www.w3.org/2000/svg">
<mask id="path-1-inside-1_727_2895" stroke="current" fill="current">
<path d="M11 11.5V14.5H3V2.5H8V1.5H3C2.73478 1.5 2.48043 1.60536 2.29289 1.79289C2.10536 1.98043 2 2.23478 2 2.5V14.5C2 14.7652 2.10536 15.0196 2.29289 15.2071C2.48043 15.3946 2.73478 15.5 3 15.5H11C11.2652 15.5 11.5196 15.3946 11.7071 15.2071C11.8946 15.0196 12 14.7652 12 14.5V11.5H11Z"  />
</mask>
<path d="M11 11.5V14.5H3V2.5H8V1.5H3C2.73478 1.5 2.48043 1.60536 2.29289 1.79289C2.10536 1.98043 2 2.23478 2 2.5V14.5C2 14.7652 2.10536 15.0196 2.29289 15.2071C2.48043 15.3946 2.73478 15.5 3 15.5H11C11.2652 15.5 11.5196 15.3946 11.7071 15.2071C11.8946 15.0196 12 14.7652 12 14.5V11.5H11Z" fill="current" stroke="current" stroke-width=".3" mask="url(#path-1-outside-1_727_2895)"/>
<mask id="path-2-inside-2_727_2895" fill="transparent">
<path d="M14.77 3.38003L13.12 1.73003C12.9705 1.58345 12.7694 1.50134 12.56 1.50134C12.3506 1.50134 12.1495 1.58345 12 1.73003L5 8.73003V11.5H7.765L14.765 4.50003C14.9116 4.35049 14.9937 4.14943 14.9937 3.94003C14.9937 3.73063 14.9116 3.52957 14.765 3.38003H14.77ZM7.35 10.5H6V9.15003L10.72 4.42503L12.075 5.78003L7.35 10.5ZM12.78 5.07503L11.425 3.72003L12.56 2.58503L13.915 3.94003L12.78 5.07503Z"/>
</mask>
<path d="M14.77 3.38003L13.12 1.73003C12.9705 1.58345 12.7694 1.50134 12.56 1.50134C12.3506 1.50134 12.1495 1.58345 12 1.73003L5 8.73003V11.5H7.765L14.765 4.50003C14.9116 4.35049 14.9937 4.14943 14.9937 3.94003C14.9937 3.73063 14.9116 3.52957 14.765 3.38003H14.77ZM7.35 10.5H6V9.15003L10.72 4.42503L12.075 5.78003L7.35 10.5ZM12.78 5.07503L11.425 3.72003L12.56 2.58503L13.915 3.94003L12.78 5.07503Z" fill="current" stroke="current" stroke-width=".3" mask="url(#path-2-outside-2_727_2895)"/>
</svg>
