<svg width="20" height="20" viewBox="0 0 20 20" fill="none" xmlns="http://www.w3.org/2000/svg">
<g id="notification_major">
<g id="Icon">
<path d="M10.0003 0C10.5525 0 11.0003 0.447716 11.0003 1V3L10.9998 3.0317L10.9988 3.05341L10.9969 3.0824C13.8362 3.55709 16.0003 6.02583 16.0003 9C16.0003 12.0933 16.6253 13.312 17.5989 15.2103L17.6336 15.2781C17.8033 15.6088 17.563 16 17.1912 16H2.80935C2.43753 16 2.19729 15.6088 2.36697 15.2781L2.40164 15.2103C3.37527 13.312 4.00027 12.0933 4.00027 9C4.00027 6.02583 6.16434 3.55709 9.00369 3.0824L9.00149 3.04284C9.00076 3.02863 9.00027 3.01435 9.00027 3V1C9.00027 0.447716 9.44803 0 10.0003 0Z" fill="#B30B15"/>
<path d="M12.0003 18C12.0003 19.1046 11.1048 20 10.0003 20C8.89578 20 8.00027 19.1046 8.00027 18H12.0003Z" fill="#B30B15"/>
</g>
</g>
</svg>
