<svg width="16" height="17" viewBox="0 0 16 17" fill="none" xmlns="http://www.w3.org/2000/svg">
<path d="M8.66667 7.83337C9.06223 7.83337 9.44891 7.71608 9.77781 7.49631C10.1067 7.27655 10.3631 6.96419 10.5144 6.59874C10.6658 6.23329 10.7054 5.83116 10.6282 5.44319C10.5511 5.05523 10.3606 4.69887 10.0809 4.41916C9.80118 4.13946 9.44481 3.94897 9.05685 3.8718C8.66889 3.79463 8.26675 3.83424 7.9013 3.98562C7.53585 4.13699 7.22349 4.39334 7.00373 4.72223C6.78397 5.05113 6.66667 5.43781 6.66667 5.83337C6.66667 6.36381 6.87738 6.87252 7.25245 7.24759C7.62753 7.62266 8.13623 7.83337 8.66667 7.83337ZM8.66667 5.16671C8.79852 5.16671 8.92741 5.20581 9.03705 5.27906C9.14668 5.35232 9.23213 5.45644 9.28259 5.57825C9.33305 5.70007 9.34625 5.83411 9.32052 5.96344C9.2948 6.09276 9.23131 6.21154 9.13807 6.30478C9.04484 6.39801 8.92605 6.46151 8.79673 6.48723C8.66741 6.51296 8.53336 6.49975 8.41154 6.44929C8.28973 6.39884 8.18561 6.31339 8.11235 6.20376C8.0391 6.09412 8 5.96523 8 5.83337C8 5.65656 8.07024 5.48699 8.19526 5.36197C8.32029 5.23695 8.48986 5.16671 8.66667 5.16671ZM11.4067 7.74004C11.7967 7.18073 12.0058 6.51525 12.0058 5.83337C12.0058 5.1515 11.7967 4.48602 11.4067 3.92671C11.5984 3.86498 11.7986 3.8335 12 3.83337C12.5304 3.83337 13.0391 4.04409 13.4142 4.41916C13.7893 4.79423 14 5.30294 14 5.83337C14 6.36381 13.7893 6.87252 13.4142 7.24759C13.0391 7.62266 12.5304 7.83337 12 7.83337C11.7986 7.83325 11.5984 7.80177 11.4067 7.74004ZM8.66667 9.16671C4.66667 9.16671 4.66667 11.8334 4.66667 11.8334V13.1667H12.6667V11.8334C12.6667 11.8334 12.6667 9.16671 8.66667 9.16671ZM6 11.8334C6 11.64 6.21333 10.5 8.66667 10.5C11 10.5 11.2933 11.54 11.3333 11.8334M16 11.8334V13.1667H14V11.8334C13.9844 11.3378 13.8703 10.8503 13.6643 10.3993C13.4582 9.94833 13.1644 9.54291 12.8 9.20671C16 9.53338 16 11.8334 16 11.8334ZM5.33333 8.50004H3.33333V10.5H2V8.50004H0V7.16671H2V5.16671H3.33333V7.16671H5.33333V8.50004Z" fill="current"/>
</svg>
